<svg width="500" height="500" viewBox="0 0 500 500" fill="none" xmlns="http://www.w3.org/2000/svg">
<rect width="500" height="500" rx="10" fill="#0099F1"/>
<rect x="225" y="225" width="50" height="50" fill="white"/>
<path d="M225 235C225 229.477 229.477 225 235 225H275V275H235C229.477 275 225 270.523 225 265V235Z" fill="#0099F1"/>
<path d="M200 210C200 204.477 204.477 200 210 200H315C320.523 200 325 204.477 325 210V215C325 220.523 320.523 225 315 225H200V210Z" fill="white"/>
<path d="M200 275H300V300H210C204.477 300 200 295.523 200 290V275Z" fill="white"/>
<rect x="200" y="225" width="25" height="50" fill="white"/>
<rect x="150" y="175" width="25" height="150" fill="white"/>
<path d="M150 160C150 154.477 154.477 150 160 150H340C345.523 150 350 154.477 350 160V165C350 170.523 345.523 175 340 175H150V160Z" fill="white"/>
<path d="M150 325H350V340C350 345.523 345.523 350 340 350H160C154.477 350 150 345.523 150 340V325Z" fill="white"/>
<path d="M325 275H340C345.523 275 350 279.477 350 285V325H325V275Z" fill="white"/>
<rect x="300" y="275" width="25" height="25" fill="white"/>
<path d="M175 175H200V200H175V175Z" fill="white"/>
<path d="M175 300H200V325H175V300Z" fill="white"/>
<path d="M300 300H325V325H300V300Z" fill="white"/>
<path d="M175 185C175 179.477 179.477 175 185 175H200V200H175V185Z" fill="#0099F1"/>
<path d="M185 325C179.477 325 175 320.523 175 315V300H200V325H185Z" fill="#0099F1"/>
<path d="M325 315C325 320.523 320.523 325 315 325H300V300H315C320.523 300 325 304.477 325 310V315Z" fill="#0099F1"/>
</svg>
