<svg width="120" height="120" viewBox="0 0 120 120" fill="none" xmlns="http://www.w3.org/2000/svg">
<rect width="120" height="120" fill="#3772FF"/>
<path d="M40.3988 91C37.6655 91 35.3421 90.0433 33.4288 88.13C31.5155 86.2167 30.5588 83.8933 30.5588 81.16V41.8C30.5588 39.0667 31.5155 36.7433 33.4288 34.83C35.3421 32.9167 37.6655 31.96 40.3988 31.96H79.7588C82.4921 31.96 84.8155 32.9167 86.7288 34.83C88.6421 36.7433 89.5988 39.0667 89.5988 41.8V44.178H82.9568V41.8C82.9568 40.9253 82.6288 40.1873 81.9728 39.586C81.3715 38.93 80.6335 38.602 79.7588 38.602H40.3988C39.5241 38.602 38.7588 38.93 38.1028 39.586C37.5015 40.1873 37.2008 40.9253 37.2008 41.8V81.16C37.2008 82.0347 37.5015 82.8 38.1028 83.456C38.7588 84.0573 39.5241 84.358 40.3988 84.358H79.7588C80.6335 84.358 81.3715 84.0573 81.9728 83.456C82.6288 82.8 82.9568 82.0347 82.9568 81.16V66.564H68.3608V59.84H89.5988V81.16C89.5988 83.8933 88.6421 86.2167 86.7288 88.13C84.8155 90.0433 82.4921 91 79.7588 91H40.3988Z" fill="white"/>
<path d="M48.2931 80C46.4211 80 44.8264 79.3413 43.5091 78.024C42.1918 76.7067 41.5331 75.112 41.5331 73.24V49.32C41.5331 47.448 42.1918 45.8533 43.5091 44.536C44.8264 43.2187 46.4211 42.56 48.2931 42.56H78.8691V48.176H49.0731C48.3104 48.176 47.7904 48.3147 47.5131 48.592C47.2704 48.8347 47.1491 49.3373 47.1491 50.1V72.46C47.1491 73.2227 47.2704 73.7427 47.5131 74.02C47.7904 74.2627 48.3104 74.384 49.0731 74.384H78.8691V80H48.2931Z" fill="white"/>
</svg>
